<?xml version="1.0" standalone="no"?>
<!DOCTYPE svg PUBLIC "-//W3C//DTD SVG 20010904//EN"
 "http://www.w3.org/TR/2001/REC-SVG-20010904/DTD/svg10.dtd">
<svg version="1.0" xmlns="http://www.w3.org/2000/svg"
 width="900.000000pt" height="900.000000pt" viewBox="0 0 900.000000 900.000000"
 preserveAspectRatio="xMidYMid meet">
<metadata>
Created by potrace 1.14, written by Peter Selinger 2001-2017
</metadata>
<g transform="translate(0.000000,900.000000) scale(0.100000,-0.100000)"
fill="#000000" stroke="none">
<path d="M2825 8001 c-88 -40 -144 -126 -145 -221 0 -102 18 -125 359 -465
171 -170 311 -313 311 -317 0 -4 -359 -9 -797 -10 l-798 -3 -90 -28 c-460
-143 -777 -570 -845 -1137 -14 -118 -14 -3126 1 -3240 70 -571 387 -997 845
-1136 84 -26 104 -28 344 -33 l255 -6 7 -48 c31 -218 212 -368 426 -355 107 7
179 37 252 105 71 65 117 151 128 238 l7 60 1438 3 1437 2 0 -27 c0 -87 52
-197 125 -268 236 -231 633 -97 687 231 l11 64 209 0 c233 0 308 11 443 62
333 129 603 450 711 846 60 221 57 121 61 1787 3 1101 1 1569 -7 1669 -31 369
-173 691 -408 920 -126 123 -282 216 -452 268 l-75 23 -787 3 c-434 1 -788 5
-788 8 0 3 141 146 314 317 209 208 321 327 336 357 28 55 31 147 6 205 -52
121 -204 179 -326 124 -34 -15 -165 -140 -540 -514 l-495 -495 -465 0 -465 0
-505 503 c-548 546 -525 527 -636 527 -27 0 -67 -9 -89 -19z m4164 -1752 c134
-21 242 -101 310 -228 65 -122 61 -8 61 -1816 0 -1430 -2 -1658 -15 -1708 -48
-184 -180 -315 -349 -346 -73 -14 -4855 -15 -4959 -2 -182 24 -329 172 -372
376 -22 105 -22 3245 0 3350 42 200 190 353 364 375 93 12 4887 11 4960 -1z"/>
<path d="M3535 5174 c-160 -32 -666 -131 -995 -194 -380 -73 -401 -78 -405
-81 -2 -2 12 -78 30 -169 18 -91 43 -220 55 -287 13 -68 27 -123 33 -123 5 0
231 43 501 95 787 153 948 184 994 191 25 4 41 11 39 18 -2 6 -19 88 -37 181
-58 308 -76 389 -86 391 -5 1 -63 -9 -129 -22z"/>
<path d="M5376 5192 c-2 -4 -20 -93 -40 -197 -19 -105 -44 -232 -55 -283 -13
-67 -15 -95 -7 -97 11 -4 242 -49 656 -129 129 -25 366 -71 525 -101 160 -31
301 -57 314 -58 23 -2 25 3 77 268 29 149 53 279 53 290 1 19 -28 26 -376 93
-659 126 -1097 211 -1120 217 -12 3 -24 2 -27 -3z"/>
<path d="M4436 3557 c-119 -191 -167 -247 -254 -293 -95 -51 -197 -20 -313 96
-36 36 -73 75 -81 88 l-16 23 -118 -74 c-66 -41 -120 -80 -122 -88 -3 -21 109
-151 184 -213 142 -117 299 -169 444 -147 94 14 193 61 283 136 l68 56 57 -50
c82 -71 155 -110 247 -134 70 -17 90 -19 160 -10 141 18 254 76 374 191 59 58
141 157 141 172 0 5 -55 43 -122 85 l-121 76 -25 -33 c-50 -65 -138 -142 -197
-170 -147 -69 -247 -12 -406 232 -48 74 -94 143 -101 152 -12 15 -21 5 -82
-95z"/>
</g>
</svg>
